<svg width="35.000000" height="25.000000" viewBox="0 0 35 25" fill="none" xmlns="http://www.w3.org/2000/svg" xmlns:xlink="http://www.w3.org/1999/xlink">
	<desc>
			Created with Pixso.
	</desc>
	<defs/>
	<path id="Vector" d="M1.75 15.5L20.12 15.5C21.05 15.5 21.87 14.73 21.87 13.75L21.87 1.5C21.87 0.57 21.05 -0.25 20.12 -0.25L1.75 -0.25C0.76 -0.25 0 0.57 0 1.5L0 13.75C0 14.73 0.76 15.5 1.75 15.5ZM1.75 1.5L20.12 1.5L20.12 13.75L1.75 13.75L1.75 1.5ZM33.96 9.26L30.73 6.03C30.07 5.38 29.2 5.05 28.27 5.05L24.5 5.05C24 5.05 23.62 5.43 23.62 5.92L23.62 17.3L12.46 17.3C11.81 16.75 10.99 16.42 10.06 16.42C8.8 16.42 7.71 16.97 7 17.9C6.23 16.97 5.14 16.37 3.93 16.37C1.75 16.37 0 18.17 0 20.31C0 22.5 1.75 24.25 3.93 24.25C5.14 24.25 6.23 23.7 7 22.77C7.71 23.7 8.8 24.25 10.06 24.25C12.19 24.25 14 22.5 14 20.31C14 19.87 13.89 19.43 13.72 19L24.55 19C24.39 19.76 24.44 20.53 24.71 21.35C25.15 22.71 26.35 23.81 27.78 24.14C30.62 24.85 33.25 22.66 33.25 19.87C33.25 19.6 33.19 19.32 33.14 19L34.12 19C34.56 19 35 18.61 35 18.12L35 11.72C35 10.79 34.61 9.92 33.96 9.26ZM3.93 22.5C2.67 22.5 1.75 21.57 1.75 20.31C1.75 19.1 2.67 18.12 3.93 18.12C5.14 18.12 6.12 19.1 6.12 20.31C6.12 21.57 5.14 22.5 3.93 22.5ZM10.06 22.5C8.8 22.5 7.87 21.57 7.87 20.31C7.87 19.1 8.8 18.12 10.06 18.12C11.26 18.12 12.25 19.1 12.25 20.31C12.25 21.57 11.26 22.5 10.06 22.5ZM25.37 6.75L28.27 6.75C28.76 6.75 29.2 6.96 29.53 7.29L32.48 10.25L25.37 10.25L25.37 6.75ZM28.87 22.5C27.39 22.5 26.25 21.35 26.25 19.87C26.25 18.45 27.39 17.25 28.87 17.25C30.29 17.25 31.5 18.45 31.5 19.87C31.5 21.35 30.29 22.5 28.87 22.5ZM33.25 17.25L32.32 17.25C31.55 16.21 30.29 15.5 28.87 15.5C27.39 15.5 26.19 16.21 25.37 17.25L25.37 12L33.25 12L33.25 17.25ZM5.68 12L6.56 12C6.78 12 7 11.83 7 11.56L7 3.68C7 3.46 6.78 3.25 6.56 3.25L5.68 3.25C5.41 3.25 5.25 3.46 5.25 3.68L5.25 11.56C5.25 11.83 5.41 12 5.68 12ZM10.93 12L11.81 12C12.03 12 12.25 11.83 12.25 11.56L12.25 3.68C12.25 3.46 12.03 3.25 11.81 3.25L10.93 3.25C10.66 3.25 10.5 3.46 10.5 3.68L10.5 11.56C10.5 11.83 10.66 12 10.93 12ZM16.18 12L17.06 12C17.28 12 17.5 11.83 17.5 11.56L17.5 3.68C17.5 3.46 17.28 3.25 17.06 3.25L16.18 3.25C15.91 3.25 15.75 3.46 15.75 3.68L15.75 11.56C15.75 11.83 15.91 12 16.18 12Z" fill="#5C8EE6" fill-opacity="1.000000" fill-rule="evenodd"/>
</svg>
